<svg height="472pt" viewBox="-3 0 471 472" width="472pt" xmlns="http://www.w3.org/2000/svg"><g fill="#78b9eb"><path d="m224.5 216h16v56h-16zm0 0"/><path d="m392.5 280h-144v16h144c4.417969 0 8 3.582031 8 8v48h16v-48c0-13.253906-10.746094-24-24-24zm0 0"/><path d="m48.5 304v48h16v-48c0-4.417969 3.582031-8 8-8h144v-16h-144c-13.253906 0-24 10.746094-24 24zm0 0"/><path d="m224.5 304h16v48h-16zm0 0"/><path d="m112.5 160v-40h40v-16h-40v-40c0-13.253906-10.746094-24-24-24h-24v16h24c4.417969 0 8 3.582031 8 8v96c0 4.417969-3.582031 8-8 8h-24v16h24c13.253906 0 24-10.746094 24-24zm0 0"/><path d="m352.5 160c0 13.253906 10.746094 24 24 24h32v-16h-32c-4.417969 0-8-3.582031-8-8v-96c0-4.417969 3.582031-8 8-8h24v-16h-24c-13.253906 0-24 10.746094-24 24v40h-40v16h40zm0 0"/></g><path d="m168.5 0h128c8.835938 0 16 7.164062 16 16v184c0 8.835938-7.164062 16-16 16h-128c-8.835938 0-16-7.164062-16-16v-184c0-8.835938 7.164062-16 16-16zm0 0" fill="#e0e0e2"/><path d="m256.5 288c0 13.253906-10.746094 24-24 24s-24-10.746094-24-24 10.746094-24 24-24 24 10.746094 24 24zm0 0" fill="#d80027"/><path d="m400.5 144h64v64h-64zm0 0" fill="#ff9811"/><path d="m464.5 16v64h-64v-64zm0 0" fill="#00ddc2"/><path d="m.5 208v-64h64v64zm0 0" fill="#91dc5a"/><path d="m.5 16h64v64h-64zm0 0" fill="#ff5023"/><path d="m248.5 176c0 8.835938-7.164062 16-16 16s-16-7.164062-16-16 7.164062-16 16-16 16 7.164062 16 16zm0 0" fill="#ffda44"/><path d="m176.5 24h112v16h-112zm0 0" fill="#acabb1"/><path d="m176.5 56h112v16h-112zm0 0" fill="#acabb1"/><path d="m176.5 88h112v16h-112zm0 0" fill="#acabb1"/><path d="m16.5 32h16v16h-16zm0 0" fill="#ffda44"/><path d="m16.5 168h16v16h-16zm0 0" fill="#ffda44"/><path d="m432.5 32h16v16h-16zm0 0" fill="#ffda44"/><path d="m416.5 176h16v16h-16zm0 0" fill="#ffda44"/><path d="m40.5 432h32v32h-32zm0 0" fill="#898890"/><path d="m40.5 432h-24c-8.824219-.027344-15.972656-7.175781-16-16v-8h112v8c-.027344 8.824219-7.175781 15.972656-16 16zm0 0" fill="#e0e0e2"/><path d="m112.5 368v40h-112v-40c.027344-8.824219 7.175781-15.972656 16-16h80c8.824219.027344 15.972656 7.175781 16 16zm0 0" fill="#bdfdff"/><path d="m56.5 352h-40c-8.824219.027344-15.972656 7.175781-16 16v40c.09375-30.890625 25.109375-55.90625 56-56zm0 0" fill="#e2feff"/><path d="m40.5 432h32v8h-32zm0 0" fill="#787680"/><path d="m.5 408h112v8h-112zm0 0" fill="#d8d7da"/><path d="m216.5 432h32v32h-32zm0 0" fill="#898890"/><path d="m216.5 432h-24c-8.824219-.027344-15.972656-7.175781-16-16v-8h112v8c-.027344 8.824219-7.175781 15.972656-16 16zm0 0" fill="#e0e0e2"/><path d="m288.5 368v40h-112v-40c.027344-8.824219 7.175781-15.972656 16-16h80c8.824219.027344 15.972656 7.175781 16 16zm0 0" fill="#bdfdff"/><path d="m232.5 352h-40c-8.824219.027344-15.972656 7.175781-16 16v40c.09375-30.890625 25.109375-55.90625 56-56zm0 0" fill="#e2feff"/><path d="m192.5 456h80v16h-80zm0 0" fill="#3e3d42"/><path d="m216.5 432h32v8h-32zm0 0" fill="#787680"/><path d="m176.5 408h112v8h-112zm0 0" fill="#d8d7da"/><path d="m392.5 432h32v32h-32zm0 0" fill="#898890"/><path d="m392.5 432h-24c-8.824219-.027344-15.972656-7.175781-16-16v-8h112v8c-.027344 8.824219-7.175781 15.972656-16 16zm0 0" fill="#e0e0e2"/><path d="m464.5 368v40h-112v-40c.027344-8.824219 7.175781-15.972656 16-16h80c8.824219.027344 15.972656 7.175781 16 16zm0 0" fill="#bdfdff"/><path d="m408.5 352h-40c-8.824219.027344-15.972656 7.175781-16 16v40c.09375-30.890625 25.109375-55.90625 56-56zm0 0" fill="#e2feff"/><path d="m392.5 432h32v8h-32zm0 0" fill="#787680"/><path d="m352.5 408h112v8h-112zm0 0" fill="#d8d7da"/><path d="m16.5 456h80v16h-80zm0 0" fill="#3e3d42"/><path d="m368.5 456h80v16h-80zm0 0" fill="#3e3d42"/><path d="m16.5 368h16v16h-16zm0 0" fill="#1a6fb0"/><path d="m48.5 368h16v16h-16zm0 0" fill="#1a6fb0"/><path d="m80.5 368h16v16h-16zm0 0" fill="#1a6fb0"/><path d="m192.5 368h80v16h-80zm0 0" fill="#1a6fb0"/><path d="m368.5 368h32v16h-32zm0 0" fill="#1a6fb0"/><path d="m416.5 368h32v16h-32zm0 0" fill="#1a6fb0"/></svg>