<svg height="464pt" viewBox="0 0 464 463" width="464pt" xmlns="http://www.w3.org/2000/svg"><path d="m128.3125 344.785156.128906 48-128 .351563-.089844-32 48-.136719 24-.0625 15.960938-16.039062zm0 0" fill="#ffdaaa"/><path d="m0 464.496094v-72h128v72zm0 0" fill="#ffeb99"/><path d="m464 360.496094h-32v-24zm0 0" fill="#ffb655"/><path d="m464 464.496094h-112v-128h80v24h32zm0 0" fill="#ffdaaa"/><path d="m296.191406 40.882812c2.410156-.359374 4.84375-.554687 7.28125-.585937 24.976563-.046875 46.976563 16.433594 53.953125 40.417969 9.300781 1.730468 17.351563 7.515625 21.957031 15.78125 16.824219 1.894531 29.242188 16.597656 28.289063 33.5s-14.941406 30.117187-31.871094 30.109375l-272 .75c-22.09375.0625-40.050781-17.800781-40.109375-39.890625s17.800782-40.046875 39.894532-40.109375c.796874 0 1.519531.160156 2.316406.234375 6.90625-23.878906 28.746094-40.332032 53.601562-40.382813 2.4375.015625 4.867188.195313 7.28125.535157 11.945313-24.84375 37.042969-40.667969 64.609375-40.742188 27.5625-.074219 52.746094 15.613281 64.828125 40.390625zm0 0" fill="#2488ff"/><path d="m324.878906 184.496094c-2.277344 8.667968-5.722656 16.984375-10.238281 24.722656l13.519531 13.519531-33.921875 33.917969-13.519531-13.519531c-7.738281 4.519531-16.054688 7.960937-24.71875 10.242187v19.117188h-48v-19.117188c-8.664062-2.28125-16.980469-5.722656-24.71875-10.242187l-13.519531 13.519531-33.921875-33.917969 13.519531-13.519531c-4.515625-7.738281-7.960937-16.054688-10.238281-24.722656h-19.121094v-48h19.121094c2.277344-8.664063 5.722656-16.980469 10.238281-24.71875l-13.519531-13.519532 33.921875-33.921874 13.519531 13.519531c7.738281-4.515625 16.054688-7.960938 24.71875-10.238281v-19.121094h48v19.121094c8.664062 2.277343 16.980469 5.722656 24.71875 10.238281l13.519531-13.519531 33.921875 33.921874-13.519531 13.519532c4.515625 7.738281 7.960937 16.054687 10.238281 24.71875h19.121094v48zm0 0" fill="#ff5023"/><path d="m296 160.496094c0 35.347656-28.652344 64-64 64s-64-28.652344-64-64c0-35.34375 28.652344-64 64-64s64 28.65625 64 64zm0 0" fill="#ffda44"/><path d="m264 160.496094c0 17.675781-14.328125 32-32 32s-32-14.324219-32-32c0-17.671875 14.328125-32 32-32s32 14.328125 32 32zm0 0" fill="#ff9811"/><path d="m24 416.496094h32v16h-32zm0 0" fill="#e0e0e2"/><path d="m400 296.496094h-160v-24h-16v24h-176c-4.417969 0-8 3.582031-8 8v56h16v-48h168v40h16v-40h152v24h16v-32c0-4.417969-3.582031-8-8-8zm0 0" fill="#78b9eb"/><path d="m224 272.496094h16v8h-16zm0 0" fill="#3d9ae2"/><path d="m216 424.496094h32v32h-32zm0 0" fill="#898890"/><path d="m216 424.496094h-24c-8.824219-.023438-15.972656-7.171875-16-16v-8h112v8c-.027344 8.828125-7.175781 15.976562-16 16zm0 0" fill="#e0e0e2"/><path d="m288 360.496094v40h-112v-40c.027344-8.824219 7.175781-15.972656 16-16h80c8.824219.027344 15.972656 7.175781 16 16zm0 0" fill="#bdfdff"/><path d="m232 344.496094h-40c-8.824219.027344-15.972656 7.175781-16 16v40c.09375-30.886719 25.109375-55.90625 56-56zm0 0" fill="#e2feff"/><path d="m216 424.496094h32v8h-32zm0 0" fill="#787680"/><path d="m176 400.496094h112v8h-112zm0 0" fill="#d8d7da"/><path d="m192 448.496094h80v16h-80zm0 0" fill="#3e3d42"/></svg>