<svg height="464pt" viewBox="0 0 464 464" width="464pt" xmlns="http://www.w3.org/2000/svg"><path d="m336 160v176h-336v-176c0-17.671875 14.328125-32 32-32h272c17.671875 0 32 14.328125 32 32zm0 0" fill="#5aaae7"/><path d="m264 272c-.035156 23.597656-8.714844 46.367188-24.398438 64h-143.203124c-28.492188-31.902344-32.441407-78.808594-9.683594-115.023438 22.757812-36.21875 66.730468-53.011718 107.835937-41.179687s69.425781 49.429687 69.449219 92.203125zm0 0" fill="#ff9811"/><path d="m179.28125 260.71875c3.039062 2.964844 4.742188 7.035156 4.71875 11.28125 0 8.835938-7.164062 16-16 16s-16-7.164062-16-16 7.164062-16 16-16c4.246094-.023438 8.316406 1.679688 11.28125 4.71875zm0 0" fill="#ff5023"/><path d="m248 440v16c0 4.417969-3.582031 8-8 8h-144c-4.417969 0-8-3.582031-8-8v-16c0-4.417969 3.582031-8 8-8h144c4.417969 0 8 3.582031 8 8zm0 0" fill="#787680"/><path d="m208 384 8 48h-96l8-48zm0 0" fill="#898890"/><path d="m408 352h32v24h-32zm0 0" fill="#898890"/><path d="m408 256h32v32h-32zm0 0" fill="#898890"/><path d="m408 160h32v32h-32zm0 0" fill="#898890"/><path d="m408 64h32v32h-32zm0 0" fill="#898890"/><path d="m232 64h32v32h-32zm0 0" fill="#898890"/><path d="m408 288h48c4.417969 0 8 3.582031 8 8v48c0 4.417969-3.582031 8-8 8h-120v-64zm0 0" fill="#00ccb3"/><path d="m408 192h48c4.417969 0 8 3.582031 8 8v48c0 4.417969-3.582031 8-8 8h-120v-64zm0 0" fill="#00ccb3"/><path d="m408 96h48c4.417969 0 8 3.582031 8 8v48c0 4.417969-3.582031 8-8 8h-120c0-17.671875-14.328125-32-32-32h-96v-24c0-4.417969 3.582031-8 8-8zm0 0" fill="#00ccb3"/><path d="m208 40v-32c0-4.417969 3.582031-8 8-8h240c4.417969 0 8 3.582031 8 8v48c0 4.417969-3.582031 8-8 8h-240c-4.417969 0-8-3.582031-8-8zm0 0" fill="#00ccb3"/><path d="m173.628906 255.058594 28.722656-28.71875 11.3125 11.3125-28.71875 28.71875zm0 0" fill="#ff5023"/><path d="m120 272h-16c.039062-35.328125 28.671875-63.960938 64-64v16c-26.5.027344-47.972656 21.5-48 48zm0 0" fill="#ffb655"/><path d="m168 168c-41.019531-.019531-78.222656 24.078125-94.976562 61.523438-16.753907 37.445312-9.933594 81.238281 17.417968 111.8125l11.917969-10.671876c-12.601563-14.074218-20.316406-31.847656-21.992187-50.664062h7.632812v-16h-7.59375c.921875-9.976562 3.554688-19.71875 7.785156-28.800781l6.527344 3.769531 8-13.855469-6.527344-3.769531c5.796875-8.179688 12.933594-15.316406 21.113282-21.113281l3.765624 6.53125 13.859376-8-3.769532-6.53125c9.097656-4.222657 18.851563-6.855469 28.839844-7.78125v7.550781h16v-7.550781c9.984375.914062 19.738281 3.535156 28.839844 7.742187l-3.769532 6.527344 13.859376 8 3.765624-6.527344c8.179688 5.796875 15.316407 12.933594 21.113282 21.113282l-6.527344 3.765624 8 13.859376 6.527344-3.769532c4.230468 9.082032 6.863281 18.824219 7.785156 28.800782h-7.59375v16h7.632812c-1.675781 18.816406-9.390624 36.589843-21.992187 50.664062l11.917969 10.671875c27.324218-30.578125 34.128906-74.355469 17.378906-111.78125-16.753906-37.429687-53.933594-61.519531-94.9375-61.515625zm0 0" fill="#cc7400"/><g fill="#009986"><path d="m360 304h16v32h-16zm0 0"/><path d="m392 304h16v32h-16zm0 0"/><path d="m424 304h16v32h-16zm0 0"/><path d="m360 208h16v32h-16zm0 0"/><path d="m392 208h16v32h-16zm0 0"/><path d="m424 208h16v32h-16zm0 0"/><path d="m360 112h16v32h-16zm0 0"/><path d="m392 112h16v32h-16zm0 0"/><path d="m424 112h16v32h-16zm0 0"/><path d="m232 24h16v16h-16zm0 0"/><path d="m264 24h16v16h-16zm0 0"/><path d="m296 24h16v16h-16zm0 0"/><path d="m360 16h16v32h-16zm0 0"/><path d="m392 16h16v32h-16zm0 0"/><path d="m424 16h16v32h-16zm0 0"/></g><path d="m368 456h-96v-16h88v-40h16v48c0 4.417969-3.582031 8-8 8zm0 0" fill="#ff9811"/><path d="m392 400h16v16h-16zm0 0" fill="#ff9811"/><path d="m392 432h16v16h-16zm0 0" fill="#ff9811"/><path d="m48 104h-16v-64c0-4.417969 3.582031-8 8-8h144v16h-136zm0 0" fill="#ff9811"/><path d="m40 0h16v16h-16zm0 0" fill="#ff9811"/><path d="m72 0h16v16h-16zm0 0" fill="#ff9811"/><path d="m104 0h16v16h-16zm0 0" fill="#ff9811"/><path d="m136 0h16v16h-16zm0 0" fill="#ff9811"/><path d="m239.601562 336h-239.601562v16c0 17.671875 14.328125 32 32 32h272c17.671875 0 32-14.328125 32-32v-16zm0 0" fill="#acabb1"/><path d="m280 352h16v16h-16zm0 0" fill="#898890"/><path d="m168 296c-13.253906 0-24-10.746094-24-24s10.746094-24 24-24 24 10.746094 24 24-10.746094 24-24 24zm0-32c-4.417969 0-8 3.582031-8 8s3.582031 8 8 8 8-3.582031 8-8-3.582031-8-8-8zm0 0" fill="#cd2a00"/></svg>