<svg height="456pt" viewBox="-16 0 456 456" width="456pt" xmlns="http://www.w3.org/2000/svg"><path d="m338.753906 232h-90.753906l-32 32 72 72c-17.671875 17.671875-17.671875 46.328125 0 64" fill="#f5be9a"/><path d="m424 384-40-40-5.34375-74.847656c-1.496094-20.933594-18.914062-37.15625-39.902344-37.152344h-90.753906l-32 32 72 72c-17.671875 17.671875-17.671875 46.328125 0 64l56 56zm0 0" fill="#f5be9a"/><path d="m56 40h224c8.835938 0 16 7.164062 16 16v368c0 8.835938-7.164062 16-16 16h-224c-8.835938 0-16-7.164062-16-16v-368c0-8.835938 7.164062-16 16-16zm0 0" fill="#d7e6eb"/><path d="m40 104h256v272h-256zm0 0" fill="#2fbadb"/><path d="m254.65625 248c0 44.183594-35.816406 80-80 80s-80-35.816406-80-80 35.816406-80 80-80 80 35.816406 80 80zm0 0" fill="#0093ba"/><g fill="#abbac2"><path d="m64 64h16v16h-16zm0 0"/><path d="m96 64h16v16h-16zm0 0"/><path d="m128 64h16v16h-16zm0 0"/><path d="m160 400h16v16h-16zm0 0"/></g><path d="m336 128h-16v-72c-.027344-22.082031-17.917969-39.972656-40-40h-56v-16h56c30.914062.0351562 55.964844 25.085938 56 56zm0 0" fill="#d7e6eb"/><path d="m0 400h16v16h-16zm0 0" fill="#d7e6eb"/><path d="m0 256h16v128h-16zm0 0" fill="#d7e6eb"/><path d="m64 128h16v16h-16zm0 0" fill="#0093ba"/><path d="m96 128h176v16h-176zm0 0" fill="#0093ba"/><path d="m150.65625 280 24 16 32-56-8-32-40-8-9.28125-27.855469c-21.597656 7.210938-39.113281 23.273438-48.167969 44.167969l41.449219 23.6875zm0 0" fill="#8ac03f"/><path d="m368 352-64 64-16-16c-17.671875-17.671875-17.671875-46.328125 0-64l-56-56c-8.839844-8.835938-8.839844-23.164062 0-32 8.835938-8.839844 23.164062-8.839844 32 0zm0 0" fill="#f5be9a"/><path d="m276.359375 398.527344c-13.058594-18.730469-12.757813-43.695313.753906-62.101563l-50.136719-50.136719c-10.546874-10.246093-12.511718-26.464843-4.710937-38.929687 5.035156-7.757813 13.300781-12.828125 22.5-13.804687 9.195313-.972657 18.34375 2.257812 24.890625 8.789062l50.34375 50.34375c3.125 3.125 3.125 8.1875 0 11.3125s-8.1875 3.125-11.3125 0l-49.757812-49.761719c-5.078126-5.320312-13.238282-6.246093-19.378907-2.191406-3.515625 2.496094-5.757812 6.414063-6.121093 10.710937-.367188 4.292969 1.179687 8.535157 4.226562 11.585938l56 56c1.507812 1.558594 2.328125 3.652344 2.285156 5.820312-.039062 2.164063-.945312 4.226563-2.507812 5.722657-12.515625 12.765625-14.222656 32.617187-4.066406 47.328125 2.25 3.15625 1.914062 7.472656-.800782 10.242187-1.652344 1.683594-3.964844 2.554688-6.320312 2.375-2.351563-.175781-4.507813-1.386719-5.886719-3.304687zm0 0" fill="#ec917f"/></svg>