<svg height="472pt" viewBox="-4 0 472 472.00463" width="472pt" xmlns="http://www.w3.org/2000/svg"><g fill="#78b9eb"><path d="m144.003906 392.003906h72v16h-72zm0 0"/><path d="m248.003906 392.003906h88v16h-88zm0 0"/><path d="m224.003906 312.003906h16v72h-16zm0 0"/></g><path d="m144.003906 384.003906v32h-26.800781c-.558594 1.582032-1.199219 3.128906-1.921875 4.640625l18.960938 18.960938-22.640626 22.640625-18.960937-18.960938c-1.511719.722656-3.058594 1.363282-4.636719 1.917969v26.800781h-32v-26.800781c-1.582031-.554687-3.128906-1.195313-4.640625-1.917969l-18.960937 18.960938-22.640625-22.640625 18.960937-18.960938c-.722656-1.511719-1.363281-3.058593-1.921875-4.640625h-26.79687475v-32h26.79687475c.558594-1.578125 1.199219-3.128906 1.921875-4.640625l-18.960937-18.957031 22.640625-22.640625 18.960937 18.960937c1.511719-.722656 3.058594-1.363281 4.640625-1.921874v-26.800782h32v26.800782c1.578125.558593 3.125 1.199218 4.636719 1.921874l18.960937-18.960937 22.640626 22.640625-18.960938 18.957031c.722656 1.511719 1.363281 3.0625 1.921875 4.640625zm0 0" fill="#ff5023"/><path d="m464.003906 344.003906v40h-128v-24h64l8-16zm0 0" fill="#ffbcab"/><path d="m336.003906 384.003906h128v64h-128zm0 0" fill="#ffc477"/><path d="m96.003906 400.003906c0 13.253906-10.746094 24-24 24-13.257812 0-24-10.746094-24-24s10.742188-24 24-24c13.253906 0 24 10.746094 24 24zm0 0" fill="#ffda44"/><path d="m256.003906 400.003906c0 13.253906-10.746094 24-24 24-13.257812 0-24-10.746094-24-24s10.742188-24 24-24c13.253906 0 24 10.746094 24 24zm0 0" fill="#d80027"/><path d="m160.003906 248.003906h144v64h-144zm0 0" fill="#b39a7c"/><path d="m408.003906 128.003906c0 17.675782-14.328125 32-32 32h-272c-22.09375 0-40-17.90625-40-40 0-22.089844 17.90625-40 40-40 .773438.042969 1.550782.121094 2.320313.242188 6.960937-23.851563 28.832031-40.246094 53.679687-40.242188 2.433594.023438 4.867188.210938 7.277344.5625 12.015625-24.808594 37.15625-40.566406 64.722656-40.566406 27.5625 0 52.703125 15.757812 64.71875 40.566406 2.410156-.351562 4.84375-.539062 7.28125-.5625 24.976563.023438 46.925782 16.558594 53.839844 40.5625 9.296875 1.753906 17.332031 7.558594 21.917969 15.839844 16.082031 1.808594 28.242187 15.414062 28.242187 31.597656zm0 0" fill="#2488ff"/><path d="m184.003906 272.003906h16v16h-16zm0 0" fill="#ff5023"/><path d="m216.003906 272.003906h64v16h-64zm0 0" fill="#ffda44"/><path d="m198.707031 49.828125-13.304687-8.886719c10.378906-15.589844 27.871094-24.949218 46.601562-24.9375v16c-13.382812 0-25.878906 6.6875-33.296875 17.824219zm0 0" fill="#fff"/><path d="m304.21875 192.003906h-16.214844v-72c0-8.835937-7.164062-16-16-16h-26.402344l-21.597656-16v16h-32c-8.839844 0-16 7.164063-16 16v74.671875l-15.785156 21.328125h15.785156v32h16v-32h16.214844l-16.214844-21.902344v-74.097656h32v16l21.597656-16h26.402344v72h-15.785156l15.785156 21.328125v34.671875h16v-34.09375zm0 0" fill="#78b9eb"/><path d="m360.003906 400.003906h16v16h-16zm0 0" fill="#e0e0e2"/><path d="m224.003906 312.003906h16v8h-16zm0 0" fill="#3d9ae2"/></svg>