<svg height="464pt" viewBox="0 0 464 464" width="464pt" xmlns="http://www.w3.org/2000/svg"><path d="m24 16h424v400h-424zm0 0" fill="#2fbadb"/><path d="m271.386719 117.414062c8.492187 2.4375 13.402343 11.296876 10.964843 19.792969l-68.414062 238.375-30.757812-8.824219 68.414062-238.378906c2.4375-8.492187 11.296875-13.402344 19.792969-10.964844zm0 0" fill="#ccdce5"/><path d="m0 0h464v32h-464zm0 0" fill="#0093ba"/><path d="m304 376c44.183594 0 80-35.816406 80-80h-80zm0 0" fill="#ffc119"/><path d="m120 72c-21.222656-.027344-41.582031 8.40625-56.566406 23.433594l56.566406 56.566406h80c0-44.183594-35.816406-80-80-80zm0 0" fill="#ffc119"/><g fill="#0093ba"><path d="m416 384h-32c-2.121094 0-4.15625-.84375-5.65625-2.34375l-48-48 11.3125-11.3125 45.65625 45.65625h28.6875zm0 0"/><path d="m149.65625 125.65625-11.3125-11.3125 48-48c1.5-1.5 3.535156-2.34375 5.65625-2.34375h64v16h-60.6875zm0 0"/><path d="m272 64h16v16h-16zm0 0"/><path d="m72 184h16v16h-16zm0 0"/><path d="m104 184h88v16h-88zm0 0"/><path d="m56 216h136v16h-136zm0 0"/><path d="m56 248h104v16h-104zm0 0"/><path d="m312 184h16v16h-16zm0 0"/><path d="m344 184h72v16h-72zm0 0"/><path d="m296 216h120v16h-120zm0 0"/><path d="m296 248h88v16h-88zm0 0"/></g><path d="m320 72h88v80h-88zm0 0" fill="#ffc119"/><path d="m232 400h-16c8.835938 0 16 7.164062 16 16s-7.164062 16-16 16h-8c8.835938 0 16 7.164062 16 16s-7.164062 16-16 16h-44.222656c-23.527344 0-46.734375-5.480469-67.777344-16h-56v-96h43.152344c8.035156.011719 15.542968-4 20-10.6875l14.574218-21.863281c6.863282-10.285157 18.679688-16.136719 31.019532-15.363281 12.335937.773437 23.328125 8.054687 28.855468 19.113281l6.398438 12.800781h64c8.835938 0 16 7.164062 16 16s-7.164062 16-16 16h-16c8.835938 0 16 7.164062 16 16s-7.164062 16-16 16zm0 0" fill="#f5be9a"/><path d="m0 336h64v128h-64zm0 0" fill="#0093ba"/><path d="m24 424h16v16h-16zm0 0" fill="#ccdce5"/><path d="m184 328h-24c-4.417969 0-8 3.582031-8 8s3.582031 8 8 8h24c4.417969 0 8-3.582031 8-8s-3.582031-8-8-8zm0 0" fill="#e9937c"/><path d="m240 360h-48c-4.417969 0-8 3.582031-8 8s3.582031 8 8 8h48c4.417969 0 8-3.582031 8-8s-3.582031-8-8-8zm0 0" fill="#e9937c"/><path d="m216 392h-8c-4.417969 0-8 3.582031-8 8s3.582031 8 8 8h8c4.417969 0 8-3.582031 8-8s-3.582031-8-8-8zm0 0" fill="#e9937c"/><path d="m208 424h-16c-4.417969 0-8 3.582031-8 8s3.582031 8 8 8h16c4.417969 0 8-3.582031 8-8s-3.582031-8-8-8zm0 0" fill="#e9937c"/></svg>