<svg height="464pt" viewBox="-31 0 463 464" width="464pt" xmlns="http://www.w3.org/2000/svg"><path d="m384.5 0h-240c-8.824219.0273438-15.972656 7.175781-16 16v432c.027344 8.824219 7.175781 15.972656 16 16h240c8.824219-.027344 15.972656-7.175781 16-16v-432c-.027344-8.824219-7.175781-15.9726562-16-16zm0 0" fill="#5aaae7"/><path d="m189.140625 334.320312-41.761719-11.359374-18.878906 15.679687-16 13.359375-34.878906-29.039062-41.761719 11.359374c-20.859375 5.730469-35.328125 24.683594-35.359375 46.320313v83.359375h224v-83.359375c-.03125-21.636719-14.5-40.589844-35.359375-46.320313zm0 0" fill="#00ccb3"/><path d="m136.5 320v-22.480469c-2.507812 1.546875-5.195312 2.785157-8 3.679688-13.222656 4.753906-27.867188 3.40625-40-3.679688v22.480469l-10.878906 2.960938 34.878906 29.039062 16-13.359375 18.878906-15.679687zm0 0" fill="#ffce8c"/><path d="m155.21875 240c-10.992188-.039062-20.566406-7.507812-23.277344-18.160156l-3.441406-13.839844-4.800781 6.398438c-3.253907 4.28125-7.011719 8.148437-11.199219 11.523437-11.332031 9.125-25.449219 14.09375-40 14.078125h-8v16c-.039062 12.734375 5.035156 24.957031 14.078125 33.921875 2.949219 2.972656 6.285156 5.527344 9.921875 7.597656 12.132812 7.085938 26.777344 8.433594 40 3.679688 2.804688-.894531 5.492188-2.132813 8-3.679688 14.855469-8.546875 24.007812-24.382812 24-41.519531v-16zm0 0" fill="#ffdaaa"/><path d="m128.5 162.320312c-5.191406-1.554687-10.582031-2.335937-16-2.320312h-72c-4.417969 0-8 3.582031-8 8v40c-.011719 14.589844 9.867188 27.335938 24 30.960938 2.605469.714843 5.296875 1.0625 8 1.039062h8c14.550781.015625 28.667969-4.953125 40-14.078125 4.1875-3.375 7.945312-7.242187 11.199219-11.523437l4.800781-6.398438 3.441406 13.839844c2.710938 10.652344 12.285156 18.121094 23.277344 18.160156h13.28125v-24c.007812-24.769531-16.261719-46.601562-40-53.679688zm0 0" fill="#57565c"/><path d="m328.5 0-6.480469 25.921875c-.882812 3.566406-4.082031 6.074219-7.757812 6.078125h-99.523438c-3.675781-.003906-6.875-2.511719-7.757812-6.078125l-6.480469-25.921875zm0 0" fill="#898890"/><path d="m208.5 72h16v16h-16zm0 0" fill="#1e81ce"/><path d="m240.5 72h16v16h-16zm0 0" fill="#1e81ce"/><path d="m272.5 72h16v16h-16zm0 0" fill="#1e81ce"/><path d="m304.5 72h16v16h-16zm0 0" fill="#1e81ce"/><path d="m32.5 384h16v80h-16zm0 0" fill="#00b39d"/><path d="m176.5 384h16v80h-16zm0 0" fill="#00b39d"/><path d="m226.84375 205.65625-24-24c-3.121094-3.125-3.121094-8.1875 0-11.3125l24-24 11.3125 11.3125-18.34375 18.34375 18.34375 18.34375zm0 0" fill="#1e81ce"/><path d="m249.015625 205.195312 23.992187-64.003906 14.980469 5.617188-23.992187 64.003906zm0 0" fill="#1e81ce"/><path d="m310.15625 205.65625-11.3125-11.3125 18.34375-18.34375-18.34375-18.34375 11.3125-11.3125 24 24c3.121094 3.125 3.121094 8.1875 0 11.3125zm0 0" fill="#1e81ce"/><g fill="#3d9ae2"><path d="m200.5 240h32v16h-32zm0 0"/><path d="m248.5 240h96v16h-96zm0 0"/><path d="m208.5 304h32v16h-32zm0 0"/><path d="m256.5 304h96v16h-96zm0 0"/><path d="m216.5 272h32v16h-32zm0 0"/><path d="m264.5 272h96v16h-96zm0 0"/></g></svg>