<svg height="472pt" viewBox="-3 0 471 472" width="472pt" xmlns="http://www.w3.org/2000/svg"><path d="m.5 48h208v144h-208zm0 0" fill="#5aaae7"/><path d="m32.5 80h48v48h-48zm0 0" fill="#ffda44"/><path d="m.5 0h208v48h-208zm0 0" fill="#0b7"/><path d="m344.5 432h32v32h-32zm0 0" fill="#787680"/><path d="m464.5 400v16c-.027344 8.824219-7.175781 15.972656-16 16h-176c-8.824219-.027344-15.972656-7.175781-16-16v-16zm0 0" fill="#e0e0e2"/><path d="m256.5 360v-72c.027344-8.824219 7.175781-15.972656 16-16h176c8.824219.027344 15.972656 7.175781 16 16v112h-208zm0 0" fill="#bdfdff"/><path d="m344.5 272h-72c-8.824219.027344-15.972656 7.175781-16 16v72c.140625-48.542969 39.457031-87.859375 88-88zm0 0" fill="#e2feff"/><path d="m160.5 288c0-8.835938-25.070312-16-56-16s-56 7.164062-56 16 25.070312 16 56 16 56-7.164062 56-16zm0 0" fill="#44ffe8"/><path d="m160.5 384v48c0 8.800781-25.039062 16-56 16s-56-7.199219-56-16v-48c0 8.800781 25.039062 16 56 16s56-7.199219 56-16zm0 0" fill="#5aaae7"/><path d="m160.5 369.121094v14.878906c0 8.800781-25.039062 16-56 16s-56-7.199219-56-16v-48c0 8.800781 25.039062 16 56 16s56-7.199219 56-16zm0 0" fill="#00b6bd"/><path d="m160.5 288v48c0 8.800781-25.039062 16-56 16s-56-7.199219-56-16v-48c0 8.800781 25.039062 16 56 16s56-7.199219 56-16zm0 0" fill="#00ddc2"/><path d="m304.5 80h128v56h-128zm0 0" fill="#ffda44"/><path d="m304.5 136h128v56h-128zm0 0" fill="#ff9811"/><path d="m304.5 24h128v56h-128zm0 0" fill="#ff9811"/><path d="m312.5 456h96v16h-96zm0 0" fill="#2d2d30"/><path d="m280.5 296h16v16h-16zm0 0" fill="#1a6fb0"/><path d="m312.5 296h32v16h-32zm0 0" fill="#1a6fb0"/><path d="m280.5 328h96v16h-96zm0 0" fill="#1a6fb0"/><g fill="#3e3d42"><path d="m320.5 40h16v16h-16zm0 0"/><path d="m320.5 96h16v16h-16zm0 0"/><path d="m320.5 152h16v16h-16zm0 0"/><path d="m352.5 40h56v16h-56zm0 0"/><path d="m352.5 96h56v16h-56zm0 0"/><path d="m352.5 152h56v16h-56zm0 0"/></g><path d="m232.5 352h-24v-16l-24 24 24 24v-16h24zm0 0" fill="#5eac24"/><path d="m376.5 232v-24h-16v24h-16l24 24 24-24zm0 0" fill="#ff9811"/><path d="m280.5 104-24-24v16h-24v16h24v16zm0 0" fill="#ffda44"/><path d="m128.5 232-24-24-24 24h16v24h16v-24zm0 0" fill="#00b6bd"/><path d="m344.5 432h32v8h-32zm0 0" fill="#57565c"/><path d="m256.5 400h208v8h-208zm0 0" fill="#c6c5ca"/><path d="m24.5 152h16v16h-16zm0 0" fill="#1a6fb0"/><path d="m56.5 152h32v16h-32zm0 0" fill="#1a6fb0"/><path d="m120.5 72h64v16h-64zm0 0" fill="#1a6fb0"/><path d="m120.5 104h16v16h-16zm0 0" fill="#1a6fb0"/><path d="m152.5 104h32v16h-32zm0 0" fill="#1a6fb0"/></svg>