<svg height="448pt" viewBox="-8 0 448 448.0636" width="448pt" xmlns="http://www.w3.org/2000/svg"><path d="m368.03125 232.0625h40c13.253906 0 24 10.746094 24 24v48h-64zm0 0" fill="#0093ba"/><path d="m408.03125 232.0625c-13.253906 0-24 10.746094-24 24v112c0 13.257812-10.746094 24-24 24h-48v-160zm0 0" fill="#047fa7"/><path d="m360.03125 392.0625c-13.253906 0-24-10.742188-24-24v-192c0-13.253906-10.746094-24-24-24h-48v240zm0 0" fill="#0093ba"/><path d="m312.03125 152.0625c-13.253906 0-24 10.746094-24 24v248c0 13.257812-10.746094 24-24 24h-136v-296zm0 0" fill="#047fa7"/><path d="m16.03125 424.0625v-176c0-13.253906 10.746094-24 24-24h176c13.253906 0 24 10.746094 24 24v176c0 13.257812 10.746094 24 24 24h-224c-13.253906 0-24-10.742188-24-24zm0 0" fill="#0093ba"/><path d="m192.03125 424.0625v-24h48v24c0 13.257812 10.746094 24 24 24h-48c-13.253906 0-24-10.742188-24-24zm0 0" fill="#f5be9a"/><path d="m16.03125 424.0625v-24h48v24c0 13.257812 10.746094 24 24 24h-48c-13.253906 0-24-10.742188-24-24zm0 0" fill="#f5be9a"/><path d="m216.03125 88.0625c.03125-44.398438-33.015625-81.867188-77.066406-87.382812-44.054688-5.511719-85.320313 22.652343-96.234375 65.6875-10.914063 43.039062 11.941406 87.464843 53.300781 103.609374v30.085938h64v-30.085938c33.75-13.175781 55.972656-45.683593 56-81.914062zm0 0" fill="#ffc119"/><path d="m192.03125 88.0625h-16c.007812-4.640625-.660156-9.261719-1.992188-13.710938l15.335938-4.574218c1.765625 5.933594 2.660156 12.09375 2.65625 18.285156zm0 0" fill="#fcdd5e"/><path d="m167.433594 60.640625c-10.441406-14.839844-28.304688-22.59375-46.273438-20.089844l-2.257812-15.839843c23.941406-3.3125 47.730468 7.019531 61.648437 26.777343zm0 0" fill="#fcdd5e"/><path d="m168.03125 104.0625h-16c0 13.257812-10.746094 24-24 24s-24-10.742188-24-24h-16c.023438 19 13.390625 35.375 32 39.199219v48.800781h16v-48.800781c18.613281-3.824219 31.976562-20.199219 32-39.199219zm0 0" fill="#faac2b"/><path d="m96.03125 224.0625 32 48 32-48zm0 0" fill="#047fa7"/><g fill="#06687f"><path d="m120.03125 296.0625h16v16h-16zm0 0"/><path d="m120.03125 360.0625h16v16h-16zm0 0"/><path d="m120.03125 328.0625h16v16h-16zm0 0"/><path d="m120.03125 392.0625h16v16h-16zm0 0"/></g><path d="m32.632812 173.398438c-21.011718-23.453126-32.6210932-53.84375-32.601562-85.335938 0-8.597656.859375-17.171875 2.5625-25.597656l15.679688 3.199218c-7.039063 34.691407 2.703124 70.667969 26.277343 97.070313zm0 0" fill="#ccdce5"/><path d="m376.03125 208.0625h-16v-40c-.027344-22.078125-17.917969-39.972656-40-40h-40v-16h40c30.914062.035156 55.964844 25.085938 56 56zm0 0" fill="#ccdce5"/><path d="m104.511719 34.734375c-5.144531-5.140625-15.984375-2.640625-24.210938 5.589844-8.230469 8.226562-10.734375 19.066406-5.589843 24.210937 5.140624 5.140625 15.980468 2.640625 24.210937-5.589844 8.230469-8.230468 10.730469-19.070312 5.589844-24.210937zm0 0" fill="#fcea95"/><path d="m96.03125 192.0625h64v32h-64zm0 0" fill="#abbac2"/><path d="m64.03125 296.0625c4.417969 0 8 3.582031 8 8v88c0 4.417969-3.582031 8-8 8s-8-3.582031-8-8v-88c0-4.417969 3.582031-8 8-8zm0 0" fill="#06687f"/><path d="m192.03125 296.0625c4.417969 0 8 3.582031 8 8v88c0 4.417969-3.582031 8-8 8s-8-3.582031-8-8v-88c0-4.417969 3.582031-8 8-8zm0 0" fill="#06687f"/></svg>