<svg height="432pt" viewBox="-4 0 432 432" width="432pt" xmlns="http://www.w3.org/2000/svg"><path d="m64 0h304c8.835938 0 16 7.164062 16 16v392c0 13.253906-10.746094 24-24 24h-296c-8.835938 0-16-7.164062-16-16v-400c0-8.835938 7.164062-16 16-16zm0 0" fill="#ccdce5"/><path d="m184 80c0 17.671875-14.328125 32-32 32s-32-14.328125-32-32 14.328125-32 32-32 32 14.328125 32 32zm0 0" fill="#0093ba"/><path d="m88 200v-48c0-22.089844 17.910156-40 40-40h48c22.089844 0 40 17.910156 40 40v48c0 8.835938-7.164062 16-16 16h-16v88h-64v-88h-16c-8.835938 0-16-7.164062-16-16zm0 0" fill="#0093ba"/><path d="m152 112c4.417969 0 8 3.582031 8 8v16c0 4.417969-3.582031 8-8 8s-8-3.582031-8-8v-16c0-4.417969 3.582031-8 8-8zm0 0" fill="#047fa7"/><path d="m152 240c4.417969 0 8 3.582031 8 8v48c0 4.417969-3.582031 8-8 8s-8-3.582031-8-8v-48c0-4.417969 3.582031-8 8-8zm0 0" fill="#047fa7"/><path d="m120 168c4.417969 0 8 3.582031 8 8v32c0 4.417969-3.582031 8-8 8s-8-3.582031-8-8v-32c0-4.417969 3.582031-8 8-8zm0 0" fill="#047fa7"/><path d="m184 168c4.417969 0 8 3.582031 8 8v32c0 4.417969-3.582031 8-8 8s-8-3.582031-8-8v-32c0-4.417969 3.582031-8 8-8zm0 0" fill="#047fa7"/><path d="m156.648438 86.511719-9.296876-13.023438 56-40c1.355469-.96875 2.980469-1.488281 4.648438-1.488281h112v16h-109.441406zm0 0" fill="#faac2b"/><path d="m336 32h16v16h-16zm0 0" fill="#faac2b"/><path d="m256 88h88v32h-88zm0 0" fill="#ffc119"/><path d="m248 144h16v16h-16zm0 0" fill="#047fa7"/><path d="m280 144h72v16h-72zm0 0" fill="#047fa7"/><path d="m248 176h104v16h-104zm0 0" fill="#047fa7"/><path d="m256 240h88v32h-88zm0 0" fill="#ffc119"/><path d="m248 296h16v16h-16zm0 0" fill="#047fa7"/><path d="m280 296h72v16h-72zm0 0" fill="#047fa7"/><path d="m248 328h104v16h-104zm0 0" fill="#047fa7"/><g fill="#faac2b"><path d="m80 328h16v16h-16zm0 0"/><path d="m112 328h16v16h-16zm0 0"/><path d="m144 328h16v16h-16zm0 0"/><path d="m176 328h16v16h-16zm0 0"/><path d="m208 328h16v16h-16zm0 0"/></g><path d="m408 216h16v144h-16zm0 0" fill="#ccdce5"/><path d="m408 376h16v16h-16zm0 0" fill="#ccdce5"/><path d="m8 48h16v176h-16zm0 0" fill="#ccdce5"/><path d="m0 408v-16c0-8.835938 7.164062-16 16-16h304c8.835938 0 16 7.164062 16 16v16c0 13.253906 10.746094 24 24 24h-336c-13.253906 0-24-10.746094-24-24zm0 0" fill="#0093ba"/></svg>