<svg height="472pt" viewBox="-3 0 471 472" width="472pt" xmlns="http://www.w3.org/2000/svg"><path d="m256.5 320h208v144h-208zm0 0" fill="#78b9eb"/><path d="m256.5 272h208v48h-208zm0 0" fill="#0b7"/><path d="m288.5 352h48v48h-48zm0 0" fill="#ffeb99"/><path d="m128.5 64h208v32h-208zm0 0" fill="#898890"/><path d="m104.5 0h256v64h-256zm0 0" fill="#e0e0e2"/><path d="m104.5 96h256v64h-256zm0 0" fill="#e0e0e2"/><path d="m280.5 288h16v16h-16zm0 0" fill="#d80027"/><path d="m312.5 288h16v16h-16zm0 0" fill="#ffda44"/><path d="m144.5 48c-8.835938 0-16-7.164062-16-16s7.164062-16 16-16 16 7.164062 16 16-7.164062 16-16 16zm0-16" fill="#ffda44"/><path d="m144.5 144c-8.835938 0-16-7.164062-16-16s7.164062-16 16-16 16 7.164062 16 16-7.164062 16-16 16zm0-16" fill="#d80027"/><path d="m112.5 272h-16v-56c0-4.417969 3.582031-8 8-8h64v-48h16v56c0 4.417969-3.582031 8-8 8h-64zm0 0" fill="#78b9eb"/><path d="m368.5 272h-16v-48h-64c-4.417969 0-8-3.582031-8-8v-56h16v48h64c4.417969 0 8 3.582031 8 8zm0 0" fill="#78b9eb"/><path d="m184.5 24h40v16h-40zm0 0" fill="#787680"/><path d="m248.5 24h16v16h-16zm0 0" fill="#ffda44"/><path d="m280.5 24h16v16h-16zm0 0" fill="#c2fb3b"/><path d="m312.5 24h16v16h-16zm0 0" fill="#ff5023"/><path d="m184.5 120h40v16h-40zm0 0" fill="#898890"/><path d="m248.5 120h16v16h-16zm0 0" fill="#ffda44"/><path d="m280.5 120h16v16h-16zm0 0" fill="#c2fb3b"/><path d="m312.5 120h16v16h-16zm0 0" fill="#ff5023"/><path d="m128.5 64h208v8h-208zm0 0" fill="#787680"/><path d="m88.5 432h32v32h-32zm0 0" fill="#787680"/><path d="m208.5 400v16c-.027344 8.824219-7.175781 15.972656-16 16h-176c-8.824219-.027344-15.972656-7.175781-16-16v-16zm0 0" fill="#e0e0e2"/><path d="m.5 360v-72c.027344-8.824219 7.175781-15.972656 16-16h176c8.824219.027344 15.972656 7.175781 16 16v112h-208zm0 0" fill="#bdfdff"/><path d="m88.5 272h-72c-8.824219.027344-15.972656 7.175781-16 16v72c.140625-48.542969 39.457031-87.859375 88-88zm0 0" fill="#e2feff"/><path d="m56.5 456h96v16h-96zm0 0" fill="#2d2d30"/><path d="m24.5 296h16v16h-16zm0 0" fill="#1a6fb0"/><path d="m56.5 296h32v16h-32zm0 0" fill="#1a6fb0"/><path d="m24.5 328h96v16h-96zm0 0" fill="#1a6fb0"/><path d="m88.5 432h32v8h-32zm0 0" fill="#57565c"/><path d="m.5 400h208v8h-208zm0 0" fill="#c6c5ca"/><path d="m168.5 160h16v8h-16zm0 0" fill="#3d9ae2"/><path d="m280.5 160h16v8h-16zm0 0" fill="#3d9ae2"/><g fill="#1a6fb0"><path d="m280.5 424h16v16h-16zm0 0"/><path d="m312.5 424h32v16h-32zm0 0"/><path d="m376.5 344h64v16h-64zm0 0"/><path d="m376.5 376h16v16h-16zm0 0"/><path d="m408.5 376h32v16h-32zm0 0"/></g></svg>