<svg height="464pt" viewBox="-31 0 463 464" width="464pt" xmlns="http://www.w3.org/2000/svg"><path d="m24.5 0h352c13.253906 0 24 10.746094 24 24v312c0 13.253906-10.746094 24-24 24h-352c-13.253906 0-24-10.746094-24-24v-312c0-13.253906 10.746094-24 24-24zm0 0" fill="#ccdce5"/><path d="m80.5 432h240c8.835938 0 16 7.164062 16 16s-7.164062 16-16 16h-240c-8.835938 0-16-7.164062-16-16s7.164062-16 16-16zm0 0" fill="#ccdce5"/><path d="m272.5 432-24-72h-96l-24 72zm0 0" fill="#abbac2"/><path d="m192.5 320h16v16h-16zm0 0" fill="#abbac2"/><path d="m24.5 24h16v16h-16zm0 0" fill="#eb4042"/><path d="m56.5 24h16v16h-16zm0 0" fill="#fde700"/><path d="m88.5 24h16v16h-16zm0 0" fill="#88bf40"/><path d="m.5 64h400v232h-400zm0 0" fill="#2fbadb"/><path d="m96.5 104c-21.222656-.027344-41.582031 8.40625-56.566406 23.433594l56.566406 56.566406h80c0-44.183594-35.816406-80-80-80zm0 0" fill="#ffc119"/><g fill="#0093ba"><path d="m48.5 216h16v16h-16zm0 0"/><path d="m80.5 216h88v16h-88zm0 0"/><path d="m32.5 248h136v16h-136zm0 0"/><path d="m240.5 216h16v16h-16zm0 0"/><path d="m272.5 216h96v16h-96zm0 0"/><path d="m224.5 248h144v16h-144zm0 0"/></g><path d="m352.5 176v-72h-16v72h-16v-32h-16v32h-16v-48h-16v48h-16v-24h-16v24h-16v16h144v-16zm0 0" fill="#ffc119"/><path d="m259.164062 392-10.664062-32h-96l-10.664062 32zm0 0" fill="#798b9b"/><path d="m126.15625 157.65625-11.3125-11.3125 48-48c1.5-1.5 3.535156-2.34375 5.65625-2.34375h16v16h-12.6875zm0 0" fill="#0093ba"/><path d="m200.5 96h16v16h-16zm0 0" fill="#0093ba"/></svg>