<svg id="Layer_1" height="512" viewBox="0 0 512 512" width="512" xmlns="http://www.w3.org/2000/svg" data-name="Layer 1"><g id="_Group_4" data-name=" Group 4"><path d="m458.22 56.1c22.26 17.68 34.52 41.32 34.52 66.56s-12.26 48.87-34.52 66.55c-21.85 17.36-50.83 26.92-81.59 26.92a143.965 143.965 0 0 1 -25.12-2.18l-56.81 24.01 1.86-47.57c-.5-.39-1.01-.78-1.51-1.18-22.27-17.68-34.53-41.32-34.53-66.55s12.26-48.88 34.53-66.56c21.85-17.36 50.82-26.92 81.58-26.92s59.74 9.56 81.59 26.92z" fill="#fedb41"/><path d="m344.14 340.17a30.149 30.149 0 0 1 -20.64 51.46v-60.27a30.054 30.054 0 0 1 20.64 8.81z" fill="#00efd1"/><path d="m323.5 391.63v91.19h-274.77v-217.5h274.77z" fill="#00acea"/><path d="m221.85 314.63h38.8v38.8h-38.8z" fill="#00efd1"/><path d="m221.34 387.83h33.04v59.98h-33.04z" fill="#f4b844"/><path d="m186.12 387.83h35.22v59.98h-35.22z" fill="#fedb41"/><path d="m150.89 387.83h35.23v59.98h-35.23z" fill="#f4b844"/><path d="m117.85 387.83h33.04v59.98h-33.04z" fill="#fedb41"/><path d="m111.58 314.63h38.8v38.8h-38.8z" fill="#00efd1"/><path d="m48.73 331.36v60.27a30.142 30.142 0 0 1 0-60.27z" fill="#00efd1"/><path d="m186 234a6 6 0 0 1 -6-6v-36a6 6 0 0 1 12 0v36a6 6 0 0 1 -6 6z" fill="#fedb41"/></g><g fill="#00efd1"><path d="m186.12 154.86a21.465 21.465 0 1 0 21.46 21.46 21.489 21.489 0 0 0 -21.46-21.46z"/><path d="m104.83 228.88h162.57v36.44h-162.57z"/><path d="m435.65 105.79a16.865 16.865 0 1 1 -16.86 16.87 16.866 16.866 0 0 1 16.86-16.87z"/><path d="m376.63 105.79a16.865 16.865 0 1 1 -16.86 16.87 16.866 16.866 0 0 1 16.86-16.87z"/><path d="m317.61 105.79a16.865 16.865 0 1 1 -16.86 16.87 16.866 16.866 0 0 1 16.86-16.87z"/></g></svg>